<svg width="48" height="48" viewBox="0 0 48 48" fill="none" xmlns="http://www.w3.org/2000/svg">
<rect width="48" height="48" rx="24" fill="#7BC845"/>
<path fill-rule="evenodd" clip-rule="evenodd" d="M24.0444 12C23.5556 12 23.1111 12.0444 22.6667 12.0889C21.5556 12.2222 20.5333 12.4889 19.5556 12.8889C19.5556 12.8889 27.6444 20.8444 27.9111 21.1556V12.6222C27.7778 12.5778 27.6556 12.5444 27.5334 12.5111L27.5333 12.5111L27.5333 12.5111C27.4111 12.4778 27.2889 12.4444 27.1556 12.4C26.1778 12.1333 25.1111 12 24.0444 12ZM31.5556 14.5778C30.7111 13.9111 29.7778 13.3333 28.8 12.9333C28.8 12.9333 28.8444 24.2667 28.8 24.6222L34.8444 18.6222C34.7556 18.4 34.6222 18.1778 34.4889 17.9556C33.9556 17.0667 33.3333 16.2222 32.5778 15.4667C32.2667 15.1556 31.9111 14.8444 31.5556 14.5778ZM14.5778 16.4889C14.7583 16.2481 14.9593 16.0278 15.1668 15.8002C15.2657 15.6917 15.3662 15.5815 15.4667 15.4667C16.2222 14.7111 17.0667 14.0889 17.9556 13.5556C18.1778 13.4222 18.4 13.2889 18.6222 13.2L24.6667 19.2C24.3111 19.1556 12.9333 19.2 12.9333 19.2C13.3778 18.2667 13.9111 17.3333 14.5778 16.4889ZM12 24C12 24.4444 12.0444 24.8889 12.0889 25.3333C12.2222 26.4444 12.4889 27.4667 12.8889 28.4444C12.8889 28.4444 20.8889 20.3556 21.1556 20.1333H12.6222C12.5778 20.2667 12.5444 20.3889 12.5111 20.5111L12.5111 20.5111C12.4778 20.6333 12.4444 20.7556 12.4 20.8889C12.1333 21.9111 12 22.9333 12 24ZM16.4444 33.3778C16.0889 33.1111 15.7333 32.8 15.4222 32.4889C14.6667 31.7333 14.0444 30.8889 13.5111 30L13.5111 30C13.3778 29.7778 13.2444 29.5555 13.1556 29.3333L19.2 23.3333C19.1556 23.6889 19.2 35.0667 19.2 35.0222C18.2222 34.5778 17.3333 34.0444 16.4444 33.3778ZM20.8889 35.6C21.8667 35.8667 22.9333 36 24 36C24.4444 36 24.8889 35.9556 25.3333 35.9111C26.4444 35.7778 27.4667 35.5111 28.4889 35.1111C28.4889 35.1111 20.3556 27.1556 20.1333 26.8444V35.3778C20.2667 35.4222 20.3889 35.4556 20.5111 35.4889C20.6333 35.5222 20.7556 35.5556 20.8889 35.6ZM33.3333 31.5556C33.0667 31.9111 32.7556 32.2667 32.4444 32.5778C31.6889 33.3333 30.8444 33.9556 29.9556 34.4889C29.7333 34.6222 29.5111 34.7556 29.2889 34.8444L23.2444 28.8C23.6 28.8444 34.9778 28.8 34.9778 28.8C34.5778 29.7778 34.0444 30.6667 33.3333 31.5556ZM35.4889 27.4889C35.5222 27.3667 35.5556 27.2444 35.6 27.1111C35.8667 26.1333 36 25.1111 36 24C36 23.5556 35.9556 23.1111 35.9111 22.6667C35.7778 21.5556 35.5111 20.5333 35.1111 19.5556C35.1111 19.5556 27.1111 27.6444 26.8 27.8667H35.3778C35.4222 27.7333 35.4556 27.6111 35.4889 27.4889Z" fill="white"/>
</svg>
